# xmcd
# 
# Track frame offsets:
#     150
#     20199
#     34058
#     48835
# 
# Disc length: 916
# 
# Revision: 3
# Processed by: cddbd v1.5.2PL0 Copyright (c) Steve Scherf et al.
# Submitted via: fre:ac v1.0.17
# 
DISCID=2c039204
DTITLE=소녀시대 - Into the New World
DYEAR=2007
DGENRE=
TTITLE0=다시 만난 세계 (Into the new world)
TTITLE1=Beginning
TTITLE2=Perfect for you (소원)
TTITLE3=다시 만난 세계 (Into the new world) -inst.
EXTD=
EXTT0=
EXTT1=
EXTT2=
EXTT3=
PLAYORDER=
